<?xml version="1.0" encoding="UTF-8"?><!DOCTYPE svg PUBLIC "-//W3C//DTD SVG 1.1//EN" "http://www.w3.org/Graphics/SVG/1.1/DTD/svg11.dtd"><svg xmlns="http://www.w3.org/2000/svg" xmlns:xlink="http://www.w3.org/1999/xlink"><defs/><symbol id="close" viewBox="0 0 32 32">
    <path fill-rule="evenodd" clip-rule="evenodd" d="M24.7071 8.70711C25.0976 8.31658 25.0976 7.68342 24.7071 7.29289C24.3166 6.90237 23.6834 6.90237 23.2929 7.29289L16 14.5858L8.70711 7.29289C8.31658 6.90237 7.68342 6.90237 7.29289 7.29289C6.90237 7.68342 6.90237 8.31658 7.29289 8.70711L14.5858 16L7.29289 23.2929C6.90237 23.6834 6.90237 24.3166 7.29289 24.7071C7.68342 25.0976 8.31658 25.0976 8.70711 24.7071L16 17.4142L23.2929 24.7071C23.6834 25.0976 24.3166 25.0976 24.7071 24.7071C25.0976 24.3166 25.0976 23.6834 24.7071 23.2929L17.4142 16L24.7071 8.70711Z"/>
</symbol><symbol id="login" viewBox="0 0 24 24">
    <path fill-rule="evenodd" clip-rule="evenodd" d="M6.75 2.25C4.67893 2.25 3 3.92893 3 6V18C3 20.0711 4.67893 21.75 6.75 21.75H12.75C14.8211 21.75 16.5 20.0711 16.5 18V17C16.5 16.5858 16.1642 16.25 15.75 16.25C15.3358 16.25 15 16.5858 15 17V18C15 19.2426 13.9926 20.25 12.75 20.25H6.75C5.50736 20.25 4.5 19.2426 4.5 18V6C4.5 4.75736 5.50736 3.75 6.75 3.75H12.75C13.9926 3.75 15 4.75736 15 6V7C15 7.41421 15.3358 7.75 15.75 7.75C16.1642 7.75 16.5 7.41421 16.5 7V6C16.5 3.92893 14.8211 2.25 12.75 2.25H6.75ZM11.7803 9.53033C12.0732 9.23744 12.0732 8.76256 11.7803 8.46967C11.4874 8.17678 11.0126 8.17678 10.7197 8.46967L7.71967 11.4697C7.42678 11.7626 7.42678 12.2374 7.71967 12.5303L10.7197 15.5303C11.0126 15.8232 11.4874 15.8232 11.7803 15.5303C12.0732 15.2374 12.0732 14.7626 11.7803 14.4697L10.0607 12.75H20.25C20.6642 12.75 21 12.4142 21 12C21 11.5858 20.6642 11.25 20.25 11.25H10.0607L11.7803 9.53033Z"/>
</symbol><symbol id="mail" viewBox="0 0 24 24">
    <path fill-rule="evenodd" clip-rule="evenodd" d="M5 5.5H19C19.6497 5.5 20.203 5.91311 20.4114 6.49099L13.2481 11.2666C12.4923 11.7704 11.5077 11.7704 10.7519 11.2666L3.58857 6.49099C3.79701 5.91311 4.35026 5.5 5 5.5ZM3.5 8.23472V17C3.5 17.8284 4.17157 18.5 5 18.5H19C19.8284 18.5 20.5 17.8284 20.5 17V8.23472L14.0801 12.5146C12.8205 13.3544 11.1795 13.3544 9.91987 12.5146L3.5 8.23472ZM2 7C2 5.34315 3.34315 4 5 4H19C20.6569 4 22 5.34315 22 7V17C22 18.6569 20.6569 20 19 20H5C3.34315 20 2 18.6569 2 17V7Z"/>
</symbol><symbol id="phone" viewBox="0 0 24 24">
    <path fill-rule="evenodd" clip-rule="evenodd" d="M6.5325 3.61307C6.21421 3.83674 5.73913 4.23444 5.16024 4.91438C4.48981 5.70184 4.08498 6.63876 4.10421 7.58059C4.14871 9.76028 5.15893 12.8115 8.17459 15.8272C11.2612 18.9138 14.3229 19.9083 16.4923 19.9154C17.3875 19.9183 18.2749 19.529 19.0295 18.8935C19.7348 18.2994 20.15 17.8033 20.3836 17.471C20.3777 17.4582 20.3641 17.4364 20.3347 17.4129L17.0179 14.7594C16.9184 14.6798 16.775 14.6878 16.685 14.7779L16.052 15.4108C15.1895 16.2733 13.803 16.5045 12.7311 15.7711C10.8957 14.5154 9.42306 13.0092 8.22991 11.2697C7.49172 10.1934 7.72445 8.79816 8.59617 7.93396L9.22085 7.31467C9.31161 7.2247 9.3199 7.08075 9.24006 6.98096L6.57993 3.6558C6.56428 3.63624 6.54884 3.6234 6.53671 3.61564C6.53523 3.6147 6.53383 3.61384 6.5325 3.61307ZM4.01811 3.94199C4.68646 3.15697 5.264 2.66771 5.6962 2.36754C6.43833 1.85211 7.30361 2.15923 7.75124 2.71876L10.4114 6.04391C10.9702 6.74248 10.9122 7.75008 10.2769 8.37992L9.65223 8.9992C9.23923 9.40864 9.18185 10.0056 9.4669 10.4212C10.5592 12.0137 11.9013 13.3859 13.5781 14.5331C13.9903 14.8151 14.5824 14.7591 14.9913 14.3501L15.6243 13.7172C16.2548 13.0867 17.2586 13.0311 17.9549 13.5881L21.2718 16.2416C21.8409 16.6969 22.1415 17.5735 21.622 18.3176C21.3114 18.7624 20.8047 19.3594 19.9958 20.0407C19.0433 20.8429 17.8239 21.4198 16.4874 21.4154C13.8678 21.4068 10.4399 20.2138 7.11393 16.8879C3.85533 13.6293 2.65777 10.2196 2.60452 7.61121C2.57603 6.21564 3.17298 4.93464 4.01811 3.94199Z"/>
</symbol><symbol id="pin" viewBox="0 0 24 24">
    <path fill-rule="evenodd" clip-rule="evenodd" d="M12 12C13.1046 12 14 11.1046 14 10C14 8.89543 13.1046 8 12 8C10.8954 8 10 8.89543 10 10C10 11.1046 10.8954 12 12 12ZM12 13.5C13.933 13.5 15.5 11.933 15.5 10C15.5 8.067 13.933 6.5 12 6.5C10.067 6.5 8.5 8.067 8.5 10C8.5 11.933 10.067 13.5 12 13.5Z"/>
    <path fill-rule="evenodd" clip-rule="evenodd" d="M16.1185 16.1287C17.4819 14.3107 18.5 12.159 18.5 9.80488C18.5 6.35749 15.625 3.5 12 3.5C8.37502 3.5 5.5 6.35749 5.5 9.80488C5.5 12.159 6.51813 14.3107 7.88146 16.1287C9.24149 17.9424 10.8671 19.3181 11.8832 20.0846C11.9274 20.118 11.9675 20.1275 12 20.1275C12.0325 20.1275 12.0726 20.118 12.1168 20.0846C13.1329 19.3181 14.7585 17.9424 16.1185 16.1287ZM13.0201 21.2821C15.1763 19.6555 20 15.392 20 9.80488C20 5.49436 16.4183 2 12 2C7.58172 2 4 5.49436 4 9.80488C4 15.392 8.82374 19.6555 10.9799 21.2821C11.5904 21.7427 12.4096 21.7427 13.0201 21.2821Z"/>
</symbol></svg>